<svg version="1.1" xmlns="http://www.w3.org/2000/svg" viewBox="0 0 200 200" width="200" height="200">
  <polygon points="100,20 170,55 170,145 100,180 30,145 30,55" fill="none" stroke="#00d4ff" stroke-width="4" 
	d="
M352.000000,448.000000 
	C234.666687,448.000000 117.833389,448.000000 1.000063,448.000000 
	C1.000042,299.000061 1.000042,150.000122 1.000021,1.000143 
	C187.333237,1.000095 373.666473,1.000095 559.999756,1.000048 
	C559.999878,149.999863 559.999878,298.999725 559.999939,447.999786 
	C490.833344,448.000000 421.666656,448.000000 352.000000,448.000000 
M377.789307,45.203979 
	C377.299377,45.131744 376.809479,44.996265 376.319550,44.996239 
	C317.228638,44.992973 258.137726,44.993568 199.046829,45.045769 
	C197.735245,45.046928 196.424164,45.642010 194.169601,45.979984 
	C191.672012,45.986622 189.148315,46.227905 186.682022,45.953381 
	C180.664108,45.283512 176.756821,48.440926 174.018112,53.105644 
	C166.294373,66.261208 158.767578,79.533279 151.241776,92.804016 
	C136.595032,118.631653 122.058487,144.521942 107.365402,170.323120 
	C98.496254,185.897400 89.353424,201.315781 80.472839,216.883667 
	C77.691170,221.760025 77.374733,227.143570 80.115028,232.058273 
	C88.675034,247.410614 97.528122,262.599365 106.243759,277.865143 
	C116.202789,295.308746 126.117714,312.777557 136.088074,330.214691 
	C141.688889,340.009979 147.414383,349.734131 152.990158,359.543518 
	C159.051315,370.206909 164.813004,381.045776 171.089798,391.578979 
	C173.946686,396.373169 176.002792,402.443268 183.384109,403.834930 
	C183.877960,403.892639 184.371826,404.000854 184.865677,404.000885 
	C247.734421,404.004242 310.603149,404.004761 373.471863,403.955353 
	C374.617157,403.954468 375.761963,403.353180 377.694733,403.019135 
	C382.274200,403.022308 385.055664,400.233948 387.127075,396.645752 
	C390.264435,391.211029 393.107361,385.606201 396.249664,380.174438 
	C403.516998,367.612000 411.048187,355.199829 418.175934,342.559540 
	C426.115356,328.479919 433.571960,314.127686 441.533051,300.060699 
	C447.105530,290.214264 453.286011,280.713898 458.989716,270.939240 
	C466.711945,257.705322 474.584015,244.535263 481.598877,230.929016 
	C483.306152,227.617523 483.412292,221.923874 481.699493,218.670929 
	C473.590393,203.269974 464.547485,188.362762 455.930481,173.226608 
	C447.418091,158.274246 439.080353,143.222366 430.552521,128.278900 
	C417.887024,106.084930 405.184601,83.911407 392.358246,61.810223 
	C388.756744,55.604454 386.298065,48.205360 377.789307,45.203979 
z"/>
<path fill="#040504" opacity="1.000000" stroke="none" 
	d="
M183.063416,403.020844 
	C176.002792,402.443268 173.946686,396.373169 171.089798,391.578979 
	C164.813004,381.045776 159.051315,370.206909 152.990158,359.543518 
	C147.414383,349.734131 141.688889,340.009979 136.088074,330.214691 
	C126.117714,312.777557 116.202789,295.308746 106.243759,277.865143 
	C97.528122,262.599365 88.675034,247.410614 80.115028,232.058273 
	C77.374733,227.143570 77.691170,221.760025 80.472839,216.883667 
	C89.353424,201.315781 98.496254,185.897400 107.365402,170.323120 
	C122.058487,144.521942 136.595032,118.631653 151.241776,92.804016 
	C158.767578,79.533279 166.294373,66.261208 174.018112,53.105644 
	C176.756821,48.440926 180.664108,45.283512 186.682022,45.953381 
	C189.148315,46.227905 191.672012,45.986622 195.102478,45.984924 
	C256.737640,46.005165 317.439941,46.020466 378.142212,46.035767 
	C386.298065,48.205360 388.756744,55.604454 392.358246,61.810223 
	C405.184601,83.911407 417.887024,106.084930 430.552521,128.278900 
	C439.080353,143.222366 447.418091,158.274246 455.930481,173.226608 
	C464.547485,188.362762 473.590393,203.269974 481.699493,218.670929 
	C483.412292,221.923874 483.306152,227.617523 481.598877,230.929016 
	C474.584015,244.535263 466.711945,257.705322 458.989716,270.939240 
	C453.286011,280.713898 447.105530,290.214264 441.533051,300.060699 
	C433.571960,314.127686 426.115356,328.479919 418.175934,342.559540 
	C411.048187,355.199829 403.516998,367.612000 396.249664,380.174438 
	C393.107361,385.606201 390.264435,391.211029 387.127075,396.645752 
	C385.055664,400.233948 382.274200,403.022308 376.838287,403.013123 
	C311.675690,403.011719 247.369553,403.016266 183.063416,403.020844 
M368.125336,72.124352 
	C366.317444,71.752083 364.509888,71.056442 362.701599,71.054520 
	C307.984253,70.996254 253.266815,71.005821 198.549393,71.008362 
	C197.053131,71.008430 195.513077,70.852196 194.083786,71.172249 
	C193.566437,71.288101 193.314240,72.587997 192.577347,73.712456 
	C186.292725,84.637901 180.046173,95.585495 173.709244,106.480507 
	C169.884766,113.055893 165.801636,119.482391 162.042831,126.094101 
	C154.401184,139.535721 146.984283,153.105301 139.320435,166.534088 
	C130.007309,182.852798 120.559258,199.094772 111.118401,215.340210 
	C107.855476,220.954910 105.794212,225.835022 110.340050,232.514496 
	C117.764633,243.423874 123.834831,255.260544 130.386490,266.757233 
	C141.545761,286.339203 152.625549,305.966400 163.757050,325.564209 
	C173.482635,342.686798 183.233475,359.794983 193.257797,377.754333 
	C193.581909,377.826813 193.906006,377.962677 194.230133,377.962769 
	C251.141434,377.978699 308.052734,377.991882 364.963959,377.936920 
	C365.998322,377.935913 367.031891,377.117096 368.422028,376.142303 
	C375.013824,364.642334 381.586121,353.131134 388.201538,341.644775 
	C401.595856,318.388092 415.032806,295.155975 428.414642,271.892090 
	C436.679291,257.524231 444.964722,243.166306 452.986237,228.663116 
	C453.981903,226.862961 454.340210,223.687622 453.421967,222.009781 
	C444.262848,205.273987 434.814392,188.695618 425.366364,172.119141 
	C415.418457,154.665634 405.431549,137.233932 395.369263,119.846214 
	C386.310638,104.192894 377.126801,88.612038 368.125336,72.124352 
z"/>
<path fill="#CECECE" opacity="1.000000" stroke="none" 
	d="
M183.223755,403.427887 
	C247.369553,403.016266 311.675690,403.011719 376.444427,403.019562 
	C375.761963,403.353180 374.617157,403.954468 373.471863,403.955353 
	C310.603149,404.004761 247.734421,404.004242 184.865677,404.000885 
	C184.371826,404.000854 183.877960,403.892639 183.223755,403.427887 
z"/>
<path fill="#D7D7D7" opacity="1.000000" stroke="none" 
	d="
M377.965759,45.619873 
	C317.439941,46.020466 256.737640,46.005165 195.574112,45.974953 
	C196.424164,45.642010 197.735245,45.046928 199.046829,45.045769 
	C258.137726,44.993568 317.228638,44.992973 376.319550,44.996239 
	C376.809479,44.996265 377.299377,45.131744 377.965759,45.619873 
z"/>
<path fill="#000000" opacity="1.000000" stroke="none" 
	d="
M192.973175,376.909546 
	C183.233475,359.794983 173.482635,342.686798 163.757050,325.564209 
	C152.625549,305.966400 141.545761,286.339203 130.386490,266.757233 
	C123.834831,255.260544 117.764633,243.423874 110.340050,232.514496 
	C105.794212,225.835022 107.855476,220.954910 111.118401,215.340210 
	C120.559258,199.094772 130.007309,182.852798 139.320435,166.534088 
	C146.984283,153.105301 154.401184,139.535721 162.042831,126.094101 
	C165.801636,119.482391 169.884766,113.055893 173.709244,106.480507 
	C180.046173,95.585495 186.292725,84.637901 193.125702,73.283455 
	C195.248734,72.570435 196.823196,72.039352 198.398087,72.038124 
	C253.186462,71.995369 307.974854,71.993370 362.763245,72.044540 
	C364.508514,72.046173 366.253235,72.667038 367.998199,72.999229 
	C377.126801,88.612038 386.310638,104.192894 395.369263,119.846214 
	C405.431549,137.233932 415.418457,154.665634 425.366364,172.119141 
	C434.814392,188.695618 444.262848,205.273987 453.421967,222.009781 
	C454.340210,223.687622 453.981903,226.862961 452.986237,228.663116 
	C444.964722,243.166306 436.679291,257.524231 428.414642,271.892090 
	C415.032806,295.155975 401.595856,318.388092 388.201538,341.644775 
	C381.586121,353.131134 375.013824,364.642334 367.789673,376.552795 
	C309.095947,376.945374 251.034561,376.927460 192.973175,376.909546 
z"/>
<path fill="#A0A0A0" opacity="1.000000" stroke="none" 
	d="
M368.061768,72.561790 
	C366.253235,72.667038 364.508514,72.046173 362.763245,72.044540 
	C307.974854,71.993370 253.186462,71.995369 198.398087,72.038124 
	C196.823196,72.039352 195.248734,72.570435 193.307556,73.101028 
	C193.314240,72.587997 193.566437,71.288101 194.083786,71.172249 
	C195.513077,70.852196 197.053131,71.008430 198.549393,71.008362 
	C253.266815,71.005821 307.984253,70.996254 362.701599,71.054520 
	C364.509888,71.056442 366.317444,71.752083 368.061768,72.561790 
z"/>
<path fill="#B1B3B2" opacity="1.000000" stroke="none" 
	d="
M193.115479,377.331940 
	C251.034561,376.927460 309.095947,376.945374 367.611572,376.821594 
	C367.031891,377.117096 365.998322,377.935913 364.963959,377.936920 
	C308.052734,377.991882 251.141434,377.978699 194.230133,377.962769 
	C193.906006,377.962677 193.581909,377.826813 193.115479,377.331940 
z"/>
</svg>